<svg id="Layer_1" data-name="Layer 1" xmlns="http://www.w3.org/2000/svg" viewBox="0 0 142.65 512"><defs><style>.cls-1{fill:#93ba60;}.cls-2{fill:#f591a0;}.cls-3{fill:#f1f0a6;}.cls-4{fill:#d33770;}.cls-5{fill:#fff;}.cls-6,.cls-9{font-size:30.57px;font-family:Raleway-SemiBold, Raleway;font-weight:600;}.cls-6{fill:#231f20;}.cls-7{letter-spacing:0em;}.cls-8{letter-spacing:0em;}.cls-12,.cls-9{fill:#d53287;}.cls-10{letter-spacing:-0.02em;}.cls-11{letter-spacing:-0.01em;}</style></defs><path class="cls-1" d="M222.68,170.59V75.78c-.69-1.29-1.33-2.62-2-4a8.32,8.32,0,0,0-.41-.85.73.73,0,0,0-.13-.09L219,70H178.14c-.35.35-.7.7-1,1.08-.93,1-1.82,2.11-2.83,3.07v97.36a71.32,71.32,0,0,0-45.85,66.61V569.26H271.07V238.12A71.31,71.31,0,0,0,222.68,170.59Z" transform="translate(-128.43 -70)"/><path class="cls-2" d="M222.68,170.59V73.45c-.13-.38-.25-.77-.4-1.15l-1.13-1.14A8,8,0,0,0,219.71,70H176.4l-.63.54-.38.33c-.15.26-.57.85-.63.95q-.25.48-.48,1h0v98.73a71.31,71.31,0,0,0-45.72,63.1H270.93A71.28,71.28,0,0,0,222.68,170.59Z" transform="translate(-128.43 -70)"/><rect class="cls-3" y="163.02" width="142.65" height="138.07"/><path class="cls-4" d="M128.43,532.14v45.58c.12.41.23.79.31,1.08a14.85,14.85,0,0,1,1.35,1.17,4.31,4.31,0,0,1,.43.52c.62.33,1.29.59,1.92.92l.83.17a11.1,11.1,0,0,1,2.11.42H266.05c2.5-.82,4.06-2.93,5-5.57V532.14Z" transform="translate(-128.43 -70)"/><path class="cls-5" d="M143,552h2.95l8.42,21.37h-3.55l-2.25-5.81h-8.25l-2.23,5.81h-3.58Zm4.9,13.06-3.43-9.17-3.55,9.17Z" transform="translate(-128.43 -70)"/><path class="cls-5" d="M156.6,551.43h3.31v17.43a2,2,0,0,0,.45,1.37,1.62,1.62,0,0,0,1.27.49,2.89,2.89,0,0,0,.76-.12c.29-.08.57-.17.83-.27l.48,2.59a7.67,7.67,0,0,1-1.71.53,9.32,9.32,0,0,1-1.78.19,3.64,3.64,0,0,1-2.66-.93,3.56,3.56,0,0,1-1-2.65Z" transform="translate(-128.43 -70)"/><path class="cls-5" d="M164.61,565.52a8.57,8.57,0,0,1,.57-3.13,7.67,7.67,0,0,1,1.64-2.59,7.78,7.78,0,0,1,2.57-1.76,8.51,8.51,0,0,1,3.37-.65,8,8,0,0,1,4.2,1.07,6.78,6.78,0,0,1,2.63,2.84l-3.22,1a4.07,4.07,0,0,0-1.53-1.55,4.12,4.12,0,0,0-2.14-.56,4.42,4.42,0,0,0-1.85.39,4.48,4.48,0,0,0-1.49,1.1,5.24,5.24,0,0,0-1,1.67,6,6,0,0,0-.36,2.14,5.87,5.87,0,0,0,.37,2.12,5.48,5.48,0,0,0,1,1.7,4.71,4.71,0,0,0,1.5,1.13,4.2,4.2,0,0,0,1.82.4,4.45,4.45,0,0,0,1.2-.16,4.2,4.2,0,0,0,1.1-.47,4.33,4.33,0,0,0,.88-.69,2.59,2.59,0,0,0,.55-.84l3.25,1a6.43,6.43,0,0,1-2.61,2.9,8.07,8.07,0,0,1-4.34,1.13,8.23,8.23,0,0,1-3.34-.66,7.86,7.86,0,0,1-2.57-1.79,8.31,8.31,0,0,1-1.66-2.6A8.45,8.45,0,0,1,164.61,565.52Z" transform="translate(-128.43 -70)"/><path class="cls-5" d="M189.38,573.7A8.19,8.19,0,0,1,186,573a7.77,7.77,0,0,1-4.17-4.38,8.8,8.8,0,0,1,0-6.23,7.71,7.71,0,0,1,1.64-2.6,8.22,8.22,0,0,1,11.77,0,7.71,7.71,0,0,1,1.64,2.6,8.8,8.8,0,0,1,0,6.23,7.71,7.71,0,0,1-1.64,2.6A7.9,7.9,0,0,1,192.7,573,8.1,8.1,0,0,1,189.38,573.7Zm-4.7-8.12a5.94,5.94,0,0,0,.36,2.1,5,5,0,0,0,1,1.67,4.5,4.5,0,0,0,1.48,1.12,4.32,4.32,0,0,0,1.86.4,4.23,4.23,0,0,0,1.84-.4,4.5,4.5,0,0,0,1.5-1.13,5.34,5.34,0,0,0,1-1.69,6.28,6.28,0,0,0,0-4.19,5.44,5.44,0,0,0-1-1.71,4.47,4.47,0,0,0-1.5-1.12,4.26,4.26,0,0,0-3.67,0,4.74,4.74,0,0,0-1.49,1.15,5.56,5.56,0,0,0-1,1.69A5.84,5.84,0,0,0,184.68,565.58Z" transform="translate(-128.43 -70)"/><path class="cls-5" d="M214.53,573.4h-3.31v-8.82a5.33,5.33,0,0,0-.77-3.2,2.58,2.58,0,0,0-2.21-1,3.76,3.76,0,0,0-1.38.27,5,5,0,0,0-1.31.77,5.84,5.84,0,0,0-1.1,1.17,5,5,0,0,0-.72,1.49v9.36h-3.31v-22h3.31v9.39a6.57,6.57,0,0,1,5.84-3.43,5,5,0,0,1,2.42.53,4.18,4.18,0,0,1,1.52,1.4,5.64,5.64,0,0,1,.8,2,12.83,12.83,0,0,1,.22,2.45Z" transform="translate(-128.43 -70)"/><path class="cls-5" d="M225.46,573.7a8.19,8.19,0,0,1-3.36-.66,7.71,7.71,0,0,1-2.54-1.78,7.85,7.85,0,0,1-1.63-2.6,8.8,8.8,0,0,1,0-6.23,7.71,7.71,0,0,1,1.64-2.6,8.44,8.44,0,0,1,9.21-1.78,7.94,7.94,0,0,1,2.56,1.78,7.71,7.71,0,0,1,1.64,2.6,8.8,8.8,0,0,1,0,6.23,7.71,7.71,0,0,1-1.64,2.6,7.79,7.79,0,0,1-2.56,1.78A8.1,8.1,0,0,1,225.46,573.7Zm-4.7-8.12a5.94,5.94,0,0,0,.36,2.1,5.34,5.34,0,0,0,1,1.67,4.54,4.54,0,0,0,1.49,1.12,4.48,4.48,0,0,0,3.7,0,4.57,4.57,0,0,0,1.49-1.13,5.34,5.34,0,0,0,1-1.69,6.28,6.28,0,0,0,0-4.19,5.44,5.44,0,0,0-1-1.71,4.54,4.54,0,0,0-1.49-1.12,4.14,4.14,0,0,0-1.85-.41,4.05,4.05,0,0,0-1.82.42,4.63,4.63,0,0,0-1.49,1.15,5.58,5.58,0,0,0-1,1.69A5.84,5.84,0,0,0,220.76,565.58Z" transform="translate(-128.43 -70)"/><path class="cls-5" d="M236.53,551.43h3.31v17.43a2,2,0,0,0,.45,1.37,1.62,1.62,0,0,0,1.27.49,2.89,2.89,0,0,0,.76-.12c.29-.08.57-.17.83-.27l.48,2.59a7.67,7.67,0,0,1-1.71.53,9.32,9.32,0,0,1-1.78.19,3.64,3.64,0,0,1-2.66-.93,3.56,3.56,0,0,1-.95-2.65Z" transform="translate(-128.43 -70)"/><text class="cls-6" transform="translate(11.49 250.24)">Ph <tspan x="0" y="36.68">Balan</tspan><tspan class="cls-7" x="82.56" y="36.68">c</tspan><tspan class="cls-8" x="99.5" y="36.68">e</tspan></text><text class="cls-9" transform="translate(46.15 416.74)">Suga<tspan class="cls-10" x="73.76" y="0">r</tspan><tspan x="84.46" y="0"> </tspan><tspan x="-23.72" y="36.68">Co</tspan><tspan class="cls-7" x="15.59" y="36.68">n</tspan><tspan class="cls-11" x="33.69" y="36.68">t</tspan><tspan class="cls-8" x="44.51" y="36.68">e</tspan><tspan class="cls-7" x="62.69" y="36.68">n</tspan><tspan x="80.79" y="36.68">t</tspan></text><path d="M218.93,322.56a24.51,24.51,0,1,1,24.5-24.39A24.58,24.58,0,0,1,218.93,322.56ZM195.87,298A23.06,23.06,0,1,0,219,275,23.11,23.11,0,0,0,195.87,298Z" transform="translate(-128.43 -70)"/><path d="M225.27,309.86a9.36,9.36,0,0,1-5.94-1.73.57.57,0,0,0-.8,0A9.22,9.22,0,0,1,204,301.73a8.59,8.59,0,0,1,1.23-5.26,48.56,48.56,0,0,1,7.35-9.93c.43-.47.83-.42,1.3.1a56.87,56.87,0,0,1,4.66,5.71c.32.46.48.56.85,0a58.46,58.46,0,0,1,4.56-5.61c.64-.7,1-.73,1.58-.05a49.06,49.06,0,0,1,7,9.45,9.44,9.44,0,0,1,1.44,4.4C234,305.73,229.88,309.85,225.27,309.86ZM220,306.8a7.75,7.75,0,0,0,9.41,0c2.3-1.72,4-5.4,2.38-8.83A45.39,45.39,0,0,0,225,288.3c-.25-.29-.39-.14-.57.06a68,68,0,0,0-4.36,5.51.52.52,0,0,0,0,.71,9.86,9.86,0,0,1,1.22,2.14,9.08,9.08,0,0,1,.87,6.1A10.05,10.05,0,0,1,220,306.8Zm-2.23,0a.34.34,0,0,0-.06-.12c-.1-.15-.22-.28-.32-.43a8.21,8.21,0,0,1-1.47-7.8,14.61,14.61,0,0,1,1.84-3.84.56.56,0,0,0,0-.76,66.33,66.33,0,0,0-4.36-5.51c-.24-.27-.38-.29-.61,0-.55.67-1.15,1.31-1.69,2a38.45,38.45,0,0,0-5.13,7.73,6.69,6.69,0,0,0,.2,6.11C208.38,308.5,214.26,309.82,217.79,306.82Zm-.87-6.06a8.18,8.18,0,0,0,1.6,4.6c.28.38.48.45.78,0,2.36-3.26,1.89-6.2-.18-9.5-.12-.19-.23-.26-.38,0A11.08,11.08,0,0,0,216.92,300.76Z" transform="translate(-128.43 -70)"/><path d="M208.27,302.74a.72.72,0,0,1,.63.42,5.07,5.07,0,0,0,2.09,1.91.7.7,0,0,1,.38,1,.68.68,0,0,1-1,.3,6.11,6.11,0,0,1-2.7-2.5A.71.71,0,0,1,208.27,302.74Z" transform="translate(-128.43 -70)"/><path class="cls-12" d="M167.91,433c5.52,0,11.05,0,16.58,0a5.51,5.51,0,0,0,3.91-1.47c17-14.46,36.58-21.59,58.92-20.94a18.43,18.43,0,0,1,5.26.66c2.06.69,3.79,2.22,3,4.67-.62,2-1.88,3.79-4.57,3.22-17.72-3.79-34.34-.28-50.21,7.73-4,2-7.7,4.56-11.51,6.92A12.28,12.28,0,0,0,185,438.2a12.91,12.91,0,0,1-6.41,5.28C170.14,447,161.91,446.83,154,442a12,12,0,0,1-5.26-6.76c-.54-1.66-.18-2.24,1.62-2.21C156.23,433.07,162.07,433,167.91,433Z" transform="translate(-128.43 -70)"/><path class="cls-12" d="M167.64,425l.35-7c-1.33-.55-1.78,1.19-2.88.76,2.27-2.43,2.27-2.43-2.58-5.2a27,27,0,0,1,3.39,1.3c2.19,1.2,2.63.13,2.55-1.79l0,0c1.73,1.61,3.42-.23,5.14-.06-.21.76-1,.85-1.5.92-2.48.35-2.33,1.5-1.07,3.09-.84,0-1.17-1.17-2.4-.92.36,3.42-1.41,7.17,1.87,10.13Z" transform="translate(-128.43 -70)"/><path class="cls-12" d="M170.13,408.47c1.32-4,1.33-4-3-4.64a35.84,35.84,0,0,0-4-.15c3.16-1.61,6.26,0,9.36.3,1.08.1,1.15,1.85,1.54,2.88.9,2.42,1.59,4.94,4.6,5.59a7.88,7.88,0,0,0-3.41.36c-.23-2.63-1.51-4.86-2.58-7.3Z" transform="translate(-128.43 -70)"/><path class="cls-12" d="M155,418.7c-1.32-.11-2,0-2.34,1.8-1.15,5.3,2.66,6.53,6.08,8.22-2.05,0-3.63-1.28-5.42-2-1.11-.42-1.14-1.31-1.13-2.26,0-1.75.07-3.5,0-5.24s.66-2.91,2.54-3.09C153.59,417.13,153.62,418,155,418.7Z" transform="translate(-128.43 -70)"/><path class="cls-12" d="M181.58,425.92c.59-2.47,1.18-4.95,1.85-7.78l-5,2.14c1-2.19,4.08-1.53,5-3.76.5.21,1,.57.84,1.12C183.48,420.43,183.42,423.47,181.58,425.92Z" transform="translate(-128.43 -70)"/><path class="cls-12" d="M161.83,421.77c-.5,1.91-.08,3.88-.29,5.79-.24,2.18,1,1.28,2,1.11-1.09,1.52-2.33,2.16-3.91.63,1.89-1.63,1.83-6.39-.06-7.68-.83-.57-2-.64-2.48-1.72Z" transform="translate(-128.43 -70)"/><path class="cls-12" d="M177.31,420.53a9.67,9.67,0,0,0-2.51,8.14c-1.08,1.09-1.6.33-2.06-.63,2.47-3.22,3.1-6.46.06-9.72C174.26,419.15,175.2,421,177.31,420.53Z" transform="translate(-128.43 -70)"/><path class="cls-12" d="M168.47,413c-2.52-1.69-5.49-1.42-8.28-1.89-1.06-.17-1.22.46-.81,1.32-1.79-1-1.61-2.23-.3-3.53.2,1.77,1.58,1.59,2.78,1.67,2.27.14,4.54,1.58,6.82,0-.09.8-.17,1.61-.25,2.41Z" transform="translate(-128.43 -70)"/><path class="cls-5" d="M257.19,550.8a26.9,26.9,0,0,1,6.64,1,7,7,0,0,1,2.46,1.17,2.08,2.08,0,0,1,.89,2.25c-.34,1.51-.57,3-.86,4.58q-.66,3.62-1.34,7.21c-.29,1.51-.57,3-.87,4.54a3.43,3.43,0,0,1-2,2.33,10.88,10.88,0,0,1-6.89,1,9.91,9.91,0,0,1-3-1,3.93,3.93,0,0,1-2.21-3.12c-.31-2-.76-4.06-1.14-6.1-.27-1.45-.53-2.91-.8-4.37-.34-1.84-.71-3.69-1-5.53a1.59,1.59,0,0,1,.33-1.19,3.28,3.28,0,0,1,1.1-1,10.73,10.73,0,0,1,3-1.11A29.08,29.08,0,0,1,257.19,550.8Zm-8.12,6.67c.29,1.27.57,2.48.83,3.69.54,2.49,1.07,5,1.61,7.47a.7.7,0,0,0,.28.44,6.94,6.94,0,0,0,3,1.24,12.34,12.34,0,0,0,3.64.14,8.49,8.49,0,0,0,3.54-1c.36-.21.73-.43.79-.91a4.13,4.13,0,0,1,.07-.49q.6-2.75,1.22-5.5c.29-1.31.59-2.63.88-3.94.08-.35.14-.69.21-1.08C261.26,559.7,252.59,559.56,249.07,557.47Zm7.3-.27a24.19,24.19,0,0,0,6.72-.74,11.14,11.14,0,0,0,2.81-1.17c.77-.45.86-.91.32-1.57a5.39,5.39,0,0,0-2.4-1.49,16.73,16.73,0,0,0-4.19-.88,23.61,23.61,0,0,0-6.17.15,11.93,11.93,0,0,0-4.6,1.5,2.39,2.39,0,0,0-1.14,1.3c-.06.2-.14.44.1.59s.41.33.64.47a10.94,10.94,0,0,0,3.48,1.3A21.53,21.53,0,0,0,256.37,557.2Z" transform="translate(-128.43 -70)"/></svg>